<svg
  width="118"
  height="24"
  viewBox="0 0 118 24"
  version="1.1"
  xmlns="http://www.w3.org/2000/svg"
  fill="#f2f2f2"
>
  <path
    d="M36.734,18.258c-0.692,-0 -1.359,-0.102 -2,-0.305c-0.64,-0.203 -1.252,-0.515 -1.836,-0.937l0,-2.43l1.196,-0l0.258,1.789c0.338,0.208 0.705,0.37 1.101,0.484c0.396,0.115 0.823,0.172 1.281,0.172c0.521,0 0.963,-0.079 1.325,-0.238c0.362,-0.159 0.639,-0.379 0.832,-0.66c0.192,-0.281 0.289,-0.61 0.289,-0.985c-0,-0.349 -0.084,-0.656 -0.25,-0.921c-0.167,-0.266 -0.442,-0.499 -0.825,-0.7c-0.382,-0.2 -0.904,-0.376 -1.566,-0.527c-0.781,-0.182 -1.441,-0.426 -1.98,-0.73c-0.539,-0.305 -0.948,-0.675 -1.227,-1.11c-0.279,-0.435 -0.418,-0.933 -0.418,-1.496c0,-0.594 0.158,-1.125 0.473,-1.594c0.315,-0.468 0.754,-0.838 1.316,-1.109c0.563,-0.271 1.219,-0.406 1.969,-0.406c0.797,-0 1.501,0.121 2.113,0.363c0.612,0.242 1.116,0.535 1.512,0.879l-0,2.273l-1.195,0l-0.258,-1.625c-0.235,-0.187 -0.526,-0.343 -0.875,-0.468c-0.349,-0.125 -0.782,-0.188 -1.297,-0.188c-0.438,0 -0.823,0.077 -1.156,0.231c-0.334,0.153 -0.594,0.368 -0.782,0.644c-0.187,0.276 -0.281,0.602 -0.281,0.977c0,0.328 0.085,0.614 0.254,0.859c0.169,0.245 0.445,0.46 0.828,0.645c0.383,0.184 0.895,0.358 1.535,0.519c1.198,0.297 2.106,0.736 2.723,1.316c0.617,0.581 0.926,1.299 0.926,2.153c-0,0.609 -0.164,1.15 -0.492,1.621c-0.329,0.471 -0.791,0.84 -1.387,1.105c-0.597,0.266 -1.298,0.399 -2.106,0.399Z"
  />
  <path
    d="M44.734,18.258c-0.88,-0 -1.549,-0.215 -2.007,-0.645c-0.459,-0.429 -0.688,-1.035 -0.688,-1.816c0,-0.537 0.147,-1.004 0.441,-1.402c0.295,-0.399 0.721,-0.709 1.278,-0.93c0.557,-0.222 1.224,-0.332 2,-0.332l1.508,-0l-0,-0.828c-0,-0.511 -0.155,-0.907 -0.465,-1.188c-0.31,-0.281 -0.746,-0.422 -1.309,-0.422c-0.354,0 -0.661,0.043 -0.922,0.129c-0.26,0.086 -0.497,0.205 -0.711,0.356l-0.164,1.179l-1.187,0l-0,-1.937c0.38,-0.307 0.823,-0.54 1.328,-0.699c0.505,-0.159 1.065,-0.239 1.68,-0.239c1.026,0 1.83,0.245 2.414,0.735c0.583,0.489 0.875,1.19 0.875,2.101l-0,4.071c-0,0.109 0.001,0.216 0.004,0.32c0.002,0.104 0.009,0.208 0.019,0.312l0.82,0.086l0,0.985l-2.211,-0c-0.046,-0.229 -0.083,-0.435 -0.109,-0.617c-0.026,-0.183 -0.044,-0.365 -0.055,-0.547c-0.296,0.38 -0.668,0.696 -1.113,0.949c-0.445,0.253 -0.92,0.379 -1.426,0.379Zm0.227,-1.289c0.51,-0 0.976,-0.123 1.398,-0.367c0.422,-0.245 0.724,-0.539 0.907,-0.883l-0,-1.531l-1.563,-0c-0.708,-0 -1.239,0.169 -1.594,0.507c-0.354,0.339 -0.531,0.716 -0.531,1.133c0,0.37 0.115,0.652 0.344,0.848c0.229,0.195 0.575,0.293 1.039,0.293Z"
  />
  <path
    d="M50.813,18.094l-0.001,-0.985l1.274,-0.218l-0,-6.11l-1.32,0l-0,-1.14l1.32,-0l-0,-1.071c-0,-0.901 0.236,-1.597 0.707,-2.09c0.471,-0.492 1.129,-0.738 1.973,-0.738c0.177,0 0.368,0.015 0.574,0.043c0.206,0.029 0.418,0.069 0.637,0.121l-0.188,1.172c-0.094,-0.021 -0.22,-0.039 -0.379,-0.055c-0.159,-0.015 -0.308,-0.023 -0.449,-0.023c-0.453,0 -0.789,0.134 -1.008,0.402c-0.219,0.269 -0.328,0.658 -0.328,1.168l0,1.071l1.844,-0l-0,1.14l-1.844,0l0,6.11l1.453,0.218l0,0.985l-4.266,-0Z"
  />
  <path
    d="M60.281,18.258c-0.781,-0 -1.461,-0.179 -2.039,-0.535c-0.578,-0.357 -1.025,-0.853 -1.34,-1.489c-0.315,-0.635 -0.472,-1.369 -0.472,-2.203l-0,-0.343c-0,-0.803 0.165,-1.52 0.496,-2.153c0.331,-0.633 0.771,-1.133 1.32,-1.5c0.55,-0.367 1.15,-0.551 1.801,-0.551c0.76,0 1.397,0.157 1.91,0.469c0.513,0.313 0.9,0.751 1.16,1.317c0.261,0.565 0.391,1.23 0.391,1.996l-0,0.961l-5.485,-0l-0.023,0.039c0.01,0.541 0.105,1.022 0.285,1.441c0.18,0.419 0.439,0.749 0.778,0.988c0.338,0.24 0.744,0.36 1.218,0.36c0.521,-0 0.978,-0.075 1.371,-0.223c0.394,-0.148 0.733,-0.353 1.02,-0.613l0.601,1c-0.302,0.291 -0.701,0.538 -1.199,0.738c-0.497,0.201 -1.095,0.301 -1.793,0.301Zm-2.211,-5.235l3.899,0l-0,-0.203c-0,-0.406 -0.072,-0.769 -0.215,-1.09c-0.143,-0.32 -0.357,-0.572 -0.641,-0.757c-0.284,-0.185 -0.639,-0.278 -1.066,-0.278c-0.344,0 -0.656,0.101 -0.938,0.301c-0.281,0.201 -0.513,0.473 -0.695,0.817c-0.182,0.343 -0.302,0.734 -0.359,1.171l0.015,0.039Z"
  />
  <path
    d="M64.625,18.094l0,-0.985l1.273,-0.218l0,-9.774l-1.273,-0.219l0,-0.992l2.813,0l-0.001,10.985l1.274,0.218l-0,0.985l-4.086,-0Zm5.43,-0l-0,-0.985l0.859,-0.101l-0.023,-0.031l-2.446,-3.157l0.797,-1.226l3.414,4.328l1.219,0.187l0,0.985l-3.82,-0Zm-2.727,-2.446l-0.57,-1.21l3.672,-3.657l0.039,-0.047l-0.907,-0.101l0,-0.992l3.641,-0l0,0.992l-1.086,0.203l-4.789,4.812Z"
  />
  <path
    d="M78.141,18.258c-0.782,-0 -1.461,-0.179 -2.039,-0.535c-0.579,-0.357 -1.025,-0.853 -1.34,-1.489c-0.315,-0.635 -0.473,-1.369 -0.473,-2.203l0,-0.343c0,-0.803 0.165,-1.52 0.496,-2.153c0.331,-0.633 0.771,-1.133 1.32,-1.5c0.55,-0.367 1.15,-0.551 1.801,-0.551c0.761,0 1.397,0.157 1.91,0.469c0.513,0.313 0.9,0.751 1.161,1.317c0.26,0.565 0.39,1.23 0.39,1.996l0,0.961l-5.484,-0l-0.024,0.039c0.011,0.541 0.106,1.022 0.286,1.441c0.179,0.419 0.438,0.749 0.777,0.988c0.338,0.24 0.745,0.36 1.219,0.36c0.52,-0 0.977,-0.075 1.371,-0.223c0.393,-0.148 0.733,-0.353 1.019,-0.613l0.602,1c-0.302,0.291 -0.702,0.538 -1.199,0.738c-0.498,0.201 -1.095,0.301 -1.793,0.301Zm-2.211,-5.235l3.898,0l0,-0.203c0,-0.406 -0.071,-0.769 -0.215,-1.09c-0.143,-0.32 -0.356,-0.572 -0.64,-0.757c-0.284,-0.185 -0.64,-0.278 -1.067,-0.278c-0.343,0 -0.656,0.101 -0.937,0.301c-0.281,0.201 -0.513,0.473 -0.696,0.817c-0.182,0.343 -0.302,0.734 -0.359,1.171l0.016,0.039Z"
  />
  <path
    d="M86.648,18.258c-0.781,-0 -1.46,-0.179 -2.039,-0.535c-0.578,-0.357 -1.024,-0.853 -1.339,-1.489c-0.316,-0.635 -0.473,-1.369 -0.473,-2.203l-0,-0.343c-0,-0.803 0.165,-1.52 0.496,-2.153c0.331,-0.633 0.771,-1.133 1.32,-1.5c0.55,-0.367 1.15,-0.551 1.801,-0.551c0.76,0 1.397,0.157 1.91,0.469c0.513,0.313 0.9,0.751 1.16,1.317c0.261,0.565 0.391,1.23 0.391,1.996l0,0.961l-5.484,-0l-0.024,0.039c0.011,0.541 0.106,1.022 0.285,1.441c0.18,0.419 0.439,0.749 0.778,0.988c0.338,0.24 0.744,0.36 1.218,0.36c0.521,-0 0.978,-0.075 1.372,-0.223c0.393,-0.148 0.733,-0.353 1.019,-0.613l0.602,1c-0.302,0.291 -0.702,0.538 -1.2,0.738c-0.497,0.201 -1.095,0.301 -1.793,0.301Zm-2.21,-5.235l3.898,0l-0,-0.203c-0,-0.406 -0.072,-0.769 -0.215,-1.09c-0.143,-0.32 -0.357,-0.572 -0.641,-0.757c-0.283,-0.185 -0.639,-0.278 -1.066,-0.278c-0.344,0 -0.656,0.101 -0.937,0.301c-0.282,0.201 -0.513,0.473 -0.696,0.817c-0.182,0.343 -0.302,0.734 -0.359,1.171l0.016,0.039Z"
  />
  <path
    d="M90.836,21.344l-0,-0.992l1.195,-0.219l0,-9.281l-1.273,-0.219l-0,-0.992l2.594,-0l0.14,1.031c0.281,-0.386 0.624,-0.68 1.028,-0.883c0.403,-0.203 0.871,-0.305 1.402,-0.305c0.698,0 1.294,0.189 1.789,0.567c0.495,0.377 0.872,0.906 1.133,1.586c0.26,0.679 0.39,1.475 0.39,2.386l0,0.165c0,0.812 -0.131,1.523 -0.394,2.132c-0.263,0.61 -0.639,1.085 -1.129,1.426c-0.49,0.341 -1.078,0.512 -1.766,0.512c-0.521,-0 -0.978,-0.087 -1.371,-0.262c-0.393,-0.174 -0.728,-0.433 -1.004,-0.777l0,2.914l1.344,0.219l0,0.992l-4.078,-0Zm4.633,-4.289c0.729,-0 1.281,-0.266 1.656,-0.797c0.375,-0.531 0.563,-1.222 0.563,-2.07l-0,-0.165c-0,-0.645 -0.084,-1.214 -0.25,-1.707c-0.167,-0.492 -0.416,-0.878 -0.747,-1.16c-0.33,-0.281 -0.743,-0.422 -1.238,-0.422c-0.437,0 -0.812,0.099 -1.125,0.297c-0.312,0.198 -0.565,0.469 -0.758,0.813l0,4.117c0.193,0.349 0.444,0.618 0.754,0.809c0.31,0.19 0.692,0.285 1.145,0.285Z"
  />
  <path
    d="M104.586,18.258c-0.781,-0 -1.461,-0.179 -2.039,-0.535c-0.578,-0.357 -1.025,-0.853 -1.34,-1.489c-0.315,-0.635 -0.473,-1.369 -0.473,-2.203l0,-0.343c0,-0.803 0.166,-1.52 0.496,-2.153c0.331,-0.633 0.771,-1.133 1.321,-1.5c0.549,-0.367 1.15,-0.551 1.801,-0.551c0.76,0 1.397,0.157 1.91,0.469c0.513,0.313 0.899,0.751 1.16,1.317c0.26,0.565 0.391,1.23 0.391,1.996l-0,0.961l-5.485,-0l-0.023,0.039c0.01,0.541 0.105,1.022 0.285,1.441c0.18,0.419 0.439,0.749 0.777,0.988c0.339,0.24 0.745,0.36 1.219,0.36c0.521,-0 0.978,-0.075 1.371,-0.223c0.393,-0.148 0.733,-0.353 1.02,-0.613l0.601,1c-0.302,0.291 -0.702,0.538 -1.199,0.738c-0.497,0.201 -1.095,0.301 -1.793,0.301Zm-2.211,-5.235l3.898,0l0,-0.203c0,-0.406 -0.071,-0.769 -0.214,-1.09c-0.144,-0.32 -0.357,-0.572 -0.641,-0.757c-0.284,-0.185 -0.639,-0.278 -1.066,-0.278c-0.344,0 -0.657,0.101 -0.938,0.301c-0.281,0.201 -0.513,0.473 -0.695,0.817c-0.183,0.343 -0.302,0.734 -0.36,1.171l0.016,0.039Z"
  />
  <path
    d="M108.992,18.094l0,-0.985l1.274,-0.218l-0,-6.039l-1.274,-0.219l0,-0.992l2.649,-0l0.132,1.078l0.016,0.148c0.24,-0.432 0.535,-0.771 0.887,-1.015c0.351,-0.245 0.754,-0.368 1.207,-0.368c0.161,0 0.327,0.015 0.496,0.043c0.169,0.029 0.29,0.056 0.363,0.082l-0.203,1.43l-1.07,-0.062c-0.407,-0.026 -0.748,0.066 -1.024,0.277c-0.276,0.211 -0.489,0.493 -0.64,0.848l-0,4.789l1.273,0.218l0,0.985l-4.086,-0Z"
  />
  <path
    d="M20,8.828l-0,9.172c-0,1.105 -0.895,2 -2,2l-12,0c-1.105,-0 -2,-0.895 -2,-2l-0,-12c0,-1.105 0.895,-2 2,-2l9.172,0c0.53,0 1.039,0.211 1.414,0.586l2.828,2.828c0.375,0.375 0.586,0.884 0.586,1.414Zm-6,-2.828l-8,-0l0,2l8,-0l0,-2Zm-2,6c-1.656,-0 -3,1.344 -3,3c-0,1.656 1.344,3 3,3c1.656,0 3,-1.344 3,-3c0,-1.656 -1.344,-3 -3,-3Z"
  />
</svg>
